<svg width="16" height="16" viewBox="0 0 16 16" fill="none" xmlns="http://www.w3.org/2000/svg">
<g clip-path="url(#clip0_337_14)">
<path d="M7.99992 11.3333L8.66659 10V6.57201C9.81392 6.27401 10.6666 5.23868 10.6666 4.00001C10.6666 2.52934 9.47059 1.33334 7.99992 1.33334C6.52925 1.33334 5.33325 2.52934 5.33325 4.00001C5.33325 5.23868 6.18592 6.27401 7.33325 6.57201V10L7.99992 11.3333ZM6.66659 4.00001C6.66659 3.26468 7.26459 2.66668 7.99992 2.66668C8.73525 2.66668 9.33325 3.26468 9.33325 4.00001C9.33325 4.73534 8.73525 5.33334 7.99992 5.33334C7.26459 5.33334 6.66659 4.73534 6.66659 4.00001Z" fill="black"/>
<path d="M10.8446 7.04199L10.4893 8.32732C12.2166 8.80465 13.3333 9.72265 13.3333 10.6667C13.3333 11.928 11.1433 13.3333 7.99992 13.3333C4.85659 13.3333 2.66659 11.928 2.66659 10.6667C2.66659 9.72265 3.78325 8.80465 5.51125 8.32665L5.15592 7.04132C2.79792 7.69332 1.33325 9.08199 1.33325 10.6667C1.33325 12.9093 4.26192 14.6667 7.99992 14.6667C11.7379 14.6667 14.6666 12.9093 14.6666 10.6667C14.6666 9.08199 13.2019 7.69332 10.8446 7.04199Z" fill="black"/>
</g>
<defs>
<clipPath id="clip0_337_14">
<rect width="16" height="16" fill="white"/>
</clipPath>
</defs>
</svg>
