<svg width="24" height="24" viewBox="0 0 24 24" fill="none" xmlns="http://www.w3.org/2000/svg">
<g clip-path="url(#clip0_39_465)">
<path fill-rule="evenodd" clip-rule="evenodd" d="M7.5019 3.75C8.15201 3.75034 8.75321 3.91985 9.30873 4.07647C9.39955 4.10208 9.48915 4.12734 9.57753 4.15146C10.2319 4.33004 10.9706 4.5 11.9999 4.5C13.0293 4.5 13.7674 4.33005 14.4216 4.15148C14.5097 4.1274 14.5991 4.10219 14.6898 4.07664C15.2454 3.91993 15.8469 3.75033 16.4981 3.75C16.9834 3.74776 17.4665 3.81565 17.9325 3.95157L17.935 3.95233C19.2063 4.32814 20.1713 5.27213 20.9134 6.55796C21.6525 7.83839 22.2083 9.5197 22.6468 11.5019C23.0965 13.5345 23.3473 15.3964 23.2143 16.8636C23.0826 18.3177 22.5378 19.6367 21.1523 20.1099L21.152 20.11C20.3023 20.3997 19.4961 20.2153 18.8009 19.8111C18.125 19.4182 17.5165 18.7996 16.9772 18.1277L16.9772 18.1277C16.4689 17.4943 15.9432 17.1079 15.225 16.8637C14.475 16.6087 13.4773 16.4958 11.9999 16.4958C10.5231 16.4958 9.50938 16.6086 8.74358 16.8648C8.00852 17.1108 7.4719 17.4992 6.96865 18.1273L6.96789 18.1282C6.43303 18.7935 5.83453 19.4166 5.16325 19.8116C4.46636 20.2216 3.66013 20.4001 2.79725 20.1014L2.79684 20.1013C1.49314 19.6491 0.958553 18.3051 0.80429 16.8749C0.64512 15.3991 0.845624 13.5268 1.29912 11.5001L1.29913 11.5001C1.74233 9.52032 2.2978 7.83958 3.0353 6.55937C3.77604 5.27355 4.73905 4.32821 6.01258 3.95225L6.02291 3.9492L6.02293 3.94928C6.50431 3.81466 7.00206 3.74759 7.5019 3.75ZM6.43221 5.39238C5.65466 5.62363 4.95855 6.22583 4.33506 7.30813C3.70698 8.39838 3.19206 9.91074 2.76292 11.8277M6.43221 5.39238C6.77854 5.29605 7.13655 5.24813 7.49604 5.24999V5.25H7.49993C7.92832 5.25 8.3095 5.3561 8.87573 5.51371C8.97227 5.54058 9.07418 5.56895 9.18263 5.59854C9.90238 5.79496 10.7845 6 11.9999 6C13.2154 6 14.0971 5.79495 14.8166 5.59853C14.9246 5.56903 15.0262 5.54075 15.1224 5.51396C15.6889 5.35624 16.0705 5.25 16.4999 5.25L16.4999 5.25001L16.5037 5.24999C16.8445 5.24829 17.1838 5.29585 17.5111 5.39117C18.2896 5.62174 18.989 6.22432 19.6143 7.30778C20.2431 8.39724 20.7581 9.90905 21.1822 11.8259L21.1822 11.8259C21.6235 13.8204 21.8319 15.4982 21.7205 16.7282C21.6079 17.971 21.205 18.5067 20.6679 18.6903C20.3312 18.8051 19.979 18.761 19.5548 18.5144C19.1112 18.2564 18.639 17.8018 18.147 17.1888C17.4816 16.3597 16.7269 15.79 15.7078 15.4435C14.7205 15.1079 13.524 14.9958 11.9999 14.9958C10.4754 14.9958 9.26673 15.108 8.26756 15.4424C7.23765 15.787 6.46671 16.3549 5.79808 17.1893L6.38336 17.6583L5.79884 17.1884C5.30151 17.807 4.839 18.262 4.40262 18.5187C3.99185 18.7604 3.64378 18.8071 3.28791 18.6839C2.85083 18.5321 2.43454 18.0018 2.29564 16.714C2.16161 15.4713 2.32579 13.7812 2.7629 11.8278" fill="#A0AEC0"/>
<path d="M13.6875 11.4375C14.2053 11.4375 14.625 11.0178 14.625 10.5C14.625 9.98223 14.2053 9.5625 13.6875 9.5625C13.1697 9.5625 12.75 9.98223 12.75 10.5C12.75 11.0178 13.1697 11.4375 13.6875 11.4375Z" fill="#A0AEC0"/>
<path d="M15.75 13.5C15.5645 13.5 15.3831 13.445 15.2289 13.3418C15.0747 13.2387 14.9545 13.0922 14.8836 12.9207C14.8128 12.7493 14.7943 12.5607 14.8307 12.3787C14.8671 12.1968 14.9566 12.0298 15.0879 11.8988C15.2193 11.7677 15.3865 11.6786 15.5685 11.6427C15.7506 11.6068 15.9391 11.6257 16.1104 11.697C16.2817 11.7684 16.4279 11.8889 16.5306 12.0434C16.6334 12.1978 16.688 12.3793 16.6875 12.5648C16.6869 12.8131 16.5878 13.0509 16.4121 13.2262C16.2363 13.4016 15.9982 13.5 15.75 13.5Z" fill="#A0AEC0"/>
<path d="M15.75 9.375C16.2678 9.375 16.6875 8.95527 16.6875 8.4375C16.6875 7.91973 16.2678 7.5 15.75 7.5C15.2322 7.5 14.8125 7.91973 14.8125 8.4375C14.8125 8.95527 15.2322 9.375 15.75 9.375Z" fill="#A0AEC0"/>
<path d="M17.8125 11.4375C18.3303 11.4375 18.75 11.0178 18.75 10.5C18.75 9.98223 18.3303 9.5625 17.8125 9.5625C17.2947 9.5625 16.875 9.98223 16.875 10.5C16.875 11.0178 17.2947 11.4375 17.8125 11.4375Z" fill="#A0AEC0"/>
<path fill-rule="evenodd" clip-rule="evenodd" d="M7.5 7.5C7.91421 7.5 8.25 7.83579 8.25 8.25V9.75H9.75C10.1642 9.75 10.5 10.0858 10.5 10.5C10.5 10.9142 10.1642 11.25 9.75 11.25H8.25V12.75C8.25 13.1642 7.91421 13.5 7.5 13.5C7.08579 13.5 6.75 13.1642 6.75 12.75V11.25H5.25C4.83579 11.25 4.5 10.9142 4.5 10.5C4.5 10.0858 4.83579 9.75 5.25 9.75H6.75V8.25C6.75 7.83579 7.08579 7.5 7.5 7.5Z" fill="#A0AEC0"/>
</g>
<defs>
<clipPath id="clip0_39_465">
<rect width="24" height="24" fill="white"/>
</clipPath>
</defs>
</svg>
