<svg width="25" height="25" viewBox="0 0 25 25" fill="none" xmlns="http://www.w3.org/2000/svg">
<g clip-path="url(#clip0_337_106)">
<path fill-rule="evenodd" clip-rule="evenodd" d="M12.5 10.5C11.3954 10.5 10.5 11.3954 10.5 12.5C10.5 13.6046 11.3954 14.5 12.5 14.5C13.6046 14.5 14.5 13.6046 14.5 12.5C14.5 11.3954 13.6046 10.5 12.5 10.5ZM8.5 12.5C8.5 10.2909 10.2909 8.5 12.5 8.5C14.7091 8.5 16.5 10.2909 16.5 12.5C16.5 14.7091 14.7091 16.5 12.5 16.5C10.2909 16.5 8.5 14.7091 8.5 12.5Z" fill="#718EBF"/>
<path fill-rule="evenodd" clip-rule="evenodd" d="M12.5 2.5C12.2348 2.5 11.9804 2.60536 11.7929 2.79289C11.6054 2.98043 11.5 3.23478 11.5 3.5V3.67399C11.4979 4.1908 11.3448 4.69572 11.0594 5.12661C10.7741 5.5575 10.369 5.89555 9.89393 6.09914C9.80938 6.13538 9.72042 6.15969 9.62961 6.17157C9.19798 6.32272 8.73333 6.35998 8.281 6.27796C7.76 6.18349 7.27925 5.93512 6.90073 5.56486L6.89285 5.55715L6.83289 5.49711C6.74002 5.40413 6.62934 5.32998 6.50794 5.27965C6.38654 5.22933 6.25642 5.20343 6.125 5.20343C5.99358 5.20343 5.86346 5.22933 5.74206 5.27965C5.62066 5.32998 5.51037 5.40374 5.4175 5.49671L5.41671 5.4975C5.32374 5.59037 5.24998 5.70066 5.19965 5.82206C5.14933 5.94346 5.12343 6.07358 5.12343 6.205C5.12343 6.33642 5.14933 6.46654 5.19965 6.58794C5.24998 6.70934 5.32374 6.81963 5.41671 6.9125L5.48491 6.98069C5.85516 7.35921 6.10349 7.84 6.19796 8.361C6.29055 8.87163 6.23113 9.39797 6.02745 9.87478C5.84189 10.3613 5.51698 10.7827 5.09305 11.0859C4.66054 11.3952 4.14498 11.5673 3.61338 11.5797L3.59 11.58H3.5C3.23478 11.58 2.98043 11.6854 2.79289 11.8729C2.60536 12.0604 2.5 12.3148 2.5 12.58C2.5 12.8452 2.60536 13.0996 2.79289 13.2871C2.98043 13.4746 3.23478 13.58 3.5 13.58H3.67399C4.1908 13.5821 4.69572 13.7352 5.12661 14.0206C5.55601 14.3049 5.8932 14.7082 6.09701 15.1811C6.30908 15.6643 6.37211 16.1998 6.27796 16.719C6.18349 17.24 5.93512 17.7207 5.56486 18.0993L5.55715 18.1072L5.4971 18.1671C5.40413 18.26 5.32998 18.3707 5.27965 18.4921C5.22933 18.6135 5.20343 18.7436 5.20343 18.875C5.20343 19.0064 5.22933 19.1365 5.27965 19.2579C5.32998 19.3793 5.40374 19.4896 5.49671 19.5825L5.4975 19.5833C5.59037 19.6763 5.70066 19.75 5.82206 19.8003C5.94346 19.8507 6.07359 19.8766 6.205 19.8766C6.33641 19.8766 6.46654 19.8507 6.58794 19.8003C6.70934 19.75 6.81963 19.6763 6.9125 19.5833L6.98069 19.5151C7.35921 19.1448 7.84 18.8965 8.361 18.802C8.87163 18.7095 9.39796 18.7689 9.87477 18.9725C10.3613 19.1581 10.7827 19.483 11.0859 19.907C11.3952 20.3395 11.5673 20.855 11.5797 21.3866L11.58 21.41V21.5C11.58 21.7652 11.6854 22.0196 11.8729 22.2071C12.0604 22.3946 12.3148 22.5 12.58 22.5C12.8452 22.5 13.0996 22.3946 13.2871 22.2071C13.4746 22.0196 13.58 21.7652 13.58 21.5V21.33L13.58 21.326C13.5821 20.8092 13.7352 20.3043 14.0206 19.8734C14.305 19.444 14.7083 19.1067 15.1812 18.9029C15.6643 18.6909 16.1998 18.6279 16.719 18.722C17.24 18.8165 17.7207 19.0649 18.0993 19.4351L18.1071 19.4429L18.1671 19.5029C18.26 19.5959 18.3707 19.67 18.4921 19.7203C18.6135 19.7707 18.7436 19.7966 18.875 19.7966C19.0064 19.7966 19.1365 19.7707 19.2579 19.7203C19.3793 19.67 19.4896 19.5963 19.5825 19.5033L19.5833 19.5025C19.6763 19.4096 19.75 19.2993 19.8003 19.1779C19.8507 19.0565 19.8766 18.9264 19.8766 18.795C19.8766 18.6636 19.8507 18.5335 19.8003 18.4121C19.75 18.2907 19.6763 18.1804 19.5833 18.0875L19.5151 18.0193C19.1448 17.6408 18.8965 17.16 18.802 16.639C18.7079 16.1198 18.7709 15.5843 18.9829 15.1012C19.1867 14.6283 19.524 14.225 19.9534 13.9406C20.3843 13.6552 20.8892 13.5021 21.406 13.5L21.41 13.5L21.5 13.5C21.7652 13.5 22.0196 13.3946 22.2071 13.2071C22.3946 13.0196 22.5 12.7652 22.5 12.5C22.5 12.2348 22.3946 11.9804 22.2071 11.7929C22.0196 11.6054 21.7652 11.5 21.5 11.5H21.33L21.326 11.5C20.8092 11.4979 20.3043 11.3448 19.8734 11.0594C19.4425 10.7741 19.1045 10.369 18.9009 9.89393C18.8646 9.80938 18.8403 9.72042 18.8284 9.62961C18.6773 9.19798 18.64 8.73332 18.722 8.281C18.8165 7.76 19.0649 7.27925 19.4351 6.90073L19.4428 6.89285L19.5029 6.8329C19.5959 6.74002 19.67 6.62934 19.7203 6.50794C19.7707 6.38654 19.7966 6.25641 19.7966 6.125C19.7966 5.99359 19.7707 5.86346 19.7203 5.74206C19.67 5.62066 19.5963 5.51037 19.5033 5.4175L19.5025 5.41671C19.4096 5.32374 19.2993 5.24998 19.1779 5.19965C19.0565 5.14933 18.9264 5.12343 18.795 5.12343C18.6636 5.12343 18.5335 5.14933 18.4121 5.19965C18.2907 5.24998 18.1804 5.32374 18.0875 5.41671L18.0193 5.48491C17.6408 5.85516 17.16 6.10349 16.639 6.19796C16.1198 6.29211 15.5843 6.22908 15.1011 6.01701C14.6282 5.8132 14.2249 5.47601 13.9406 5.04661C13.6552 4.61572 13.5021 4.1108 13.5 3.59399L13.5 3.59V3.5C13.5 3.23478 13.3946 2.98043 13.2071 2.79289C13.0196 2.60536 12.7652 2.5 12.5 2.5ZM19.9 15.5L20.8149 15.9038C20.7624 16.0226 20.7468 16.1544 20.77 16.2822C20.7929 16.4086 20.8527 16.5253 20.9419 16.6177L20.9967 16.6725C20.9966 16.6724 20.9968 16.6726 20.9967 16.6725C21.2755 16.951 21.497 17.2822 21.6479 17.6462C21.7989 18.0104 21.8766 18.4008 21.8766 18.795C21.8766 19.1892 21.7989 19.5796 21.6479 19.9438C21.4969 20.308 21.2756 20.6389 20.9967 20.9175L20.29 20.21L20.9975 20.9167C20.7189 21.1956 20.388 21.4169 20.0238 21.5679C19.6596 21.7189 19.2692 21.7966 18.875 21.7966C18.4808 21.7966 18.0904 21.7189 17.7262 21.5679C17.3622 21.417 17.0314 21.1959 16.7529 20.9171C16.7528 20.917 16.753 20.9172 16.7529 20.9171L16.6977 20.8619C16.6053 20.7727 16.4886 20.7129 16.3622 20.69C16.2344 20.6668 16.1026 20.6824 15.9838 20.7349L15.974 20.7392C15.8574 20.7891 15.758 20.872 15.6881 20.9777C15.6183 21.083 15.5808 21.2063 15.58 21.3325V21.5C15.58 22.2957 15.2639 23.0587 14.7013 23.6213C14.1387 24.1839 13.3757 24.5 12.58 24.5C11.7843 24.5 11.0213 24.1839 10.4587 23.6213C9.89607 23.0587 9.58 22.2957 9.58 21.5V21.4244C9.57526 21.2972 9.53327 21.1741 9.45914 21.0704C9.38326 20.9644 9.27723 20.8836 9.15482 20.8385C9.13505 20.8313 9.11551 20.8234 9.09624 20.8149C8.97742 20.7624 8.84561 20.7468 8.71782 20.77C8.59142 20.7929 8.47467 20.8527 8.3823 20.9419L8.3275 20.9967C8.32737 20.9968 8.32763 20.9966 8.3275 20.9967C8.04896 21.2755 7.71784 21.497 7.35382 21.6479C6.98963 21.7989 6.59925 21.8766 6.205 21.8766C5.81075 21.8766 5.42037 21.7989 5.05618 21.6479C4.69233 21.4971 4.36174 21.2761 4.08329 20.9975C3.80436 20.7189 3.58308 20.388 3.43211 20.0238C3.28113 19.6596 3.20343 19.2692 3.20343 18.875C3.20343 18.4808 3.28113 18.0904 3.43211 17.7262C3.58308 17.362 3.80436 17.0311 4.08329 16.7525L4.13811 16.6977C4.22728 16.6053 4.28713 16.4886 4.31005 16.3622C4.33322 16.2344 4.31758 16.1026 4.26514 15.9838L4.26081 15.974C4.21087 15.8574 4.12801 15.758 4.02232 15.6881C3.91704 15.6183 3.79374 15.5808 3.6675 15.58H3.5C2.70435 15.58 1.94129 15.2639 1.37868 14.7013C0.816071 14.1387 0.5 13.3756 0.5 12.58C0.5 11.7844 0.816071 11.0213 1.37868 10.4587C1.94129 9.89607 2.70435 9.58 3.5 9.58H3.57564C3.70283 9.57526 3.82591 9.53327 3.92955 9.45914C4.03564 9.38326 4.11644 9.27723 4.16146 9.15482C4.16874 9.13505 4.17663 9.11551 4.18514 9.09624C4.23758 8.97742 4.25322 8.84561 4.23005 8.71782C4.20713 8.59142 4.14728 8.47468 4.0581 8.38231L4.00329 8.3275C3.72436 8.04888 3.50308 7.71802 3.35211 7.35382C3.20113 6.98963 3.12343 6.59925 3.12343 6.205C3.12343 5.81075 3.20113 5.42037 3.35211 5.05618C3.50301 4.69216 3.72415 4.36143 4.00289 4.08289C4.28143 3.80415 4.61216 3.58301 4.97618 3.43211C5.34037 3.28113 5.73075 3.20343 6.125 3.20343C6.51925 3.20343 6.90963 3.28113 7.27382 3.43211C7.63802 3.58308 7.96888 3.80436 8.2475 4.08329L8.30231 4.1381C8.39468 4.22728 8.51142 4.28713 8.63782 4.31005C8.76561 4.33322 8.89742 4.31758 9.01624 4.26514C9.08027 4.23687 9.14693 4.21549 9.21507 4.20122C9.28479 4.1539 9.34498 4.09323 9.39195 4.02232C9.46167 3.91704 9.49921 3.79374 9.5 3.6675V3.5C9.5 2.70435 9.81607 1.94129 10.3787 1.37868C10.9413 0.816071 11.7044 0.5 12.5 0.5C13.2956 0.5 14.0587 0.816071 14.6213 1.37868C15.1839 1.94129 15.5 2.70435 15.5 3.5V3.5875C15.5008 3.71374 15.5383 3.83704 15.6081 3.94232C15.678 4.04801 15.7774 4.13092 15.8939 4.18086L15.9038 4.18508C16.0226 4.23752 16.1544 4.25322 16.2822 4.23005C16.4086 4.20713 16.5253 4.14728 16.6177 4.05811L16.6725 4.00329C16.9511 3.72436 17.282 3.50308 17.6462 3.35211C18.0104 3.20113 18.4008 3.12343 18.795 3.12343C19.1892 3.12343 19.5796 3.20113 19.9438 3.35211C20.308 3.50308 20.6389 3.72436 20.9175 4.00329C21.1961 4.28174 21.4171 4.61233 21.5679 4.97618C21.7189 5.34037 21.7966 5.73075 21.7966 6.125C21.7966 6.51925 21.7189 6.90963 21.5679 7.27382C21.417 7.63784 21.1959 7.96857 20.9171 8.2471C20.917 8.24724 20.9172 8.24697 20.9171 8.2471L20.8619 8.30231C20.7727 8.39468 20.7129 8.51142 20.69 8.63782C20.6668 8.76561 20.6824 8.89742 20.7349 9.01624C20.7631 9.08027 20.7845 9.14692 20.7988 9.21507C20.8461 9.28479 20.9068 9.34498 20.9777 9.39195C21.083 9.46167 21.2063 9.49921 21.3325 9.5H21.5C22.2957 9.5 23.0587 9.81607 23.6213 10.3787C24.1839 10.9413 24.5 11.7043 24.5 12.5C24.5 13.2957 24.1839 14.0587 23.6213 14.6213C23.0587 15.1839 22.2957 15.5 21.5 15.5H21.4125C21.2863 15.5008 21.163 15.5383 21.0577 15.6081C20.952 15.678 20.8691 15.7774 20.8191 15.8939L19.9 15.5Z" fill="#718EBF"/>
</g>
<defs>
<clipPath id="clip0_337_106">
<rect width="24" height="24" fill="white" transform="translate(0.5 0.5)"/>
</clipPath>
</defs>
</svg>
