<svg width="25" height="25" viewBox="0 0 25 25" fill="none" xmlns="http://www.w3.org/2000/svg">
<g clip-path="url(#clip0_337_102)">
<path d="M0.5 12.5C0.5 9.3174 1.76428 6.26516 4.01472 4.01472C6.26516 1.76428 9.3174 0.5 12.5 0.5C15.6826 0.5 18.7348 1.76428 20.9853 4.01472C23.2357 6.26516 24.5 9.3174 24.5 12.5C24.5 15.6826 23.2357 18.7348 20.9853 20.9853C18.7348 23.2357 15.6826 24.5 12.5 24.5C9.3174 24.5 6.26516 23.2357 4.01472 20.9853C1.76428 18.7348 0.5 15.6826 0.5 12.5ZM11.75 2.1155C10.745 2.4215 9.7475 3.3455 8.9195 4.898C8.6467 5.41414 8.41207 5.94958 8.2175 6.5H11.75V2.1155ZM6.635 6.5C6.88501 5.70323 7.20631 4.9306 7.595 4.1915C7.85436 3.70108 8.15388 3.23298 8.4905 2.792C6.63201 3.56274 5.03301 4.84943 3.8825 6.5H6.635ZM5.762 11.75C5.807 10.4345 5.969 9.173 6.23 8H3.011C2.45168 9.17758 2.11792 10.4495 2.027 11.75H5.762ZM7.7705 8C7.47547 9.2297 7.30561 10.4861 7.2635 11.75H11.75V8H7.7705ZM13.25 8V11.75H17.735C17.6934 10.4861 17.5241 9.22975 17.2295 8H13.25ZM7.265 13.25C7.30662 14.5138 7.47598 15.7702 7.7705 17H11.75V13.25H7.265ZM13.25 13.25V17H17.2295C17.51 15.8525 17.6885 14.588 17.7365 13.25H13.25ZM8.2175 18.5C8.4245 19.079 8.66 19.616 8.9195 20.102C9.7475 21.6545 10.7465 22.577 11.75 22.8845V18.5H8.2175ZM8.4905 22.208C8.15386 21.767 7.85434 21.2989 7.595 20.8085C7.20632 20.0694 6.88502 19.2968 6.635 18.5H3.8825C5.03295 20.1506 6.63196 21.4373 8.4905 22.208ZM6.23 17C5.95875 15.7671 5.80208 14.5118 5.762 13.25H2.027C2.12 14.585 2.4635 15.8495 3.011 17H6.23ZM16.5095 22.208C18.368 21.4373 19.9671 20.1506 21.1175 18.5H18.365C18.115 19.2968 17.7937 20.0694 17.405 20.8085C17.1457 21.299 16.8462 21.7671 16.5095 22.208ZM13.25 18.5V22.8845C14.255 22.5785 15.2525 21.6545 16.0805 20.102C16.34 19.616 16.5755 19.079 16.7825 18.5H13.25ZM18.77 17H21.989C22.5365 15.8495 22.88 14.585 22.973 13.25H19.238C19.1979 14.5118 19.0413 15.7671 18.77 17ZM22.973 11.75C22.882 10.4495 22.5483 9.17759 21.989 8H18.77C19.031 9.173 19.193 10.4345 19.238 11.75H22.973ZM17.405 4.1915C17.7755 4.8875 18.098 5.6615 18.365 6.5H21.1175C19.9671 4.84937 18.368 3.56267 16.5095 2.792C16.8365 3.218 17.1365 3.689 17.405 4.1915ZM16.7825 6.5C16.5879 5.94957 16.3533 5.41413 16.0805 4.898C15.2525 3.3455 14.255 2.423 13.25 2.1155V6.5H16.7825Z" fill="#68CCE0"/>
</g>
<defs>
<clipPath id="clip0_337_102">
<rect width="24" height="24" fill="white" transform="translate(0.5 0.5)"/>
</clipPath>
</defs>
</svg>
